<?xml version="1.0" encoding="utf-8"?>
<svg version="1.1" viewBox="0 0 850.4 850.4" fill="currentColor">
<path   d="M336.7,337.4v273.3c0,4.4-1.4,8.1-4.3,10.9c-2.8,2.8-6.5,4.3-10.9,4.3
	h-30.4c-4.4,0-8.1-1.4-10.9-4.3c-2.8-2.8-4.3-6.5-4.3-10.9V337.4c0-4.4,1.4-8.1,4.3-10.9c2.8-2.8,6.5-4.3,10.9-4.3h30.4
	c4.4,0,8.1,1.4,10.9,4.3C335.2,329.4,336.7,333,336.7,337.4z M458.1,337.4v273.3c0,4.4-1.4,8.1-4.3,10.9c-2.8,2.8-6.5,4.3-10.9,4.3
	h-30.4c-4.4,0-8.1-1.4-10.9-4.3c-2.8-2.8-4.3-6.5-4.3-10.9V337.4c0-4.4,1.4-8.1,4.3-10.9c2.8-2.8,6.5-4.3,10.9-4.3H443
	c4.4,0,8.1,1.4,10.9,4.3C456.7,329.4,458.1,333,458.1,337.4z M579.6,337.4v273.3c0,4.4-1.4,8.1-4.3,10.9c-2.8,2.8-6.5,4.3-10.9,4.3
	h-30.4c-4.4,0-8.1-1.4-10.9-4.3c-2.8-2.8-4.3-6.5-4.3-10.9V337.4c0-4.4,1.4-8.1,4.3-10.9c2.8-2.8,6.5-4.3,10.9-4.3h30.4
	c4.4,0,8.1,1.4,10.9,4.3C578.2,329.4,579.6,333,579.6,337.4z M640.4,681V231.1H215.2V681c0,7,1.1,13.4,3.3,19.2
	c2.2,5.9,4.5,10.1,6.9,12.8c2.4,2.7,4,4,5,4h394.8c0.9,0,2.6-1.3,5-4c2.4-2.7,4.7-7,6.9-12.8S640.4,688,640.4,681z M321.5,170.4
	h212.6l-22.8-55.5c-2.2-2.8-4.9-4.6-8.1-5.2H352.8c-3.2,0.6-5.9,2.4-8.1,5.2L321.5,170.4z M761.9,185.6v30.4c0,4.4-1.4,8.1-4.3,10.9
	s-6.5,4.3-10.9,4.3h-45.6V681c0,26.3-7.4,49-22.3,68.1c-14.9,19.1-32.7,28.7-53.6,28.7H230.4c-20.9,0-38.8-9.3-53.6-27.8
	s-22.3-40.9-22.3-67.1V231.1h-45.6c-4.4,0-8.1-1.4-10.9-4.3s-4.3-6.5-4.3-10.9v-30.4c0-4.4,1.4-8.1,4.3-10.9s6.5-4.3,10.9-4.3h146.6
	l33.2-79.2c4.7-11.7,13.3-21.7,25.6-29.9c12.3-8.2,24.8-12.3,37.5-12.3h151.9c12.7,0,25.2,4.1,37.5,12.3
	c12.3,8.2,20.9,18.2,25.6,29.9l33.2,79.2h146.6c4.4,0,8.1,1.4,10.9,4.3S761.9,181.1,761.9,185.6z"/>
</svg>
